<svg xmlns="http://www.w3.org/2000/svg" xmlns:xlink="http://www.w3.org/1999/xlink" version="1.1" id="Layer_1" x="0px" y="0px" viewBox="0 0 100 100" enable-background="new 0 0 100 100" xml:space="preserve" height="100px" width="100px">
<g>
	<path fill="#000000" d="M81.8,33.2H52.9c-0.6,0-1,0.4-1,1s0.4,1,1,1h28.9c0.6,0,1-0.4,1-1S82.3,33.2,81.8,33.2z"/>
	<path fill="#000000" d="M81.8,40H52.9c-0.6,0-1,0.4-1,1s0.4,1,1,1h28.9c0.6,0,1-0.4,1-1S82.3,40,81.8,40z"/>
	<path fill="#000000" d="M76.5,52.9H52.9c-0.6,0-1,0.4-1,1s0.4,1,1,1h23.6c0.6,0,1-0.4,1-1S77,52.9,76.5,52.9z"/>
	<path fill="#000000" d="M70,59.4H52.9c-0.6,0-1,0.4-1,1s0.4,1,1,1H70c0.6,0,1-0.4,1-1S70.5,59.4,70,59.4z"/>
	<path fill="#000000" d="M28.6,32.5c-6.9,0-12.4,5.6-12.4,12.4s5.6,12.4,12.4,12.4V45H41C41,38.1,35.4,32.5,28.6,32.5z"/>
	<path fill="#000000" d="M31.6,61C38.5,61,44,55.4,44,48.5H31.6V61z"/>
	<path fill="#000000" d="M83.8,17.7H52.9v-3.6c0-1.6-1.3-3-3-3c-1.6,0-3,1.3-3,3v3.6H16c-5,0-9.1,4.1-9.1,9.1v41   c0,5,4.1,9.1,9.1,9.1h32.8l-9.5,11.2c-0.4,0.4-0.3,1.1,0.1,1.4c0.2,0.2,0.4,0.2,0.6,0.2c0.3,0,0.6-0.1,0.8-0.4l9.1-10.8L59,89.4   c0.2,0.2,0.5,0.4,0.8,0.4c0.2,0,0.5-0.1,0.6-0.2c0.4-0.4,0.5-1,0.1-1.4L51,76.9h32.8c5,0,9.1-4.1,9.1-9.1v-41   C92.9,21.8,88.8,17.7,83.8,17.7z M90.9,67.8c0,3.9-3.2,7.1-7.1,7.1H16c-3.9,0-7.1-3.2-7.1-7.1v-41c0-3.9,3.2-7.1,7.1-7.1h67.8   c3.9,0,7.1,3.2,7.1,7.1V67.8z"/>
</g>
</svg>