<svg xmlns="http://www.w3.org/2000/svg" xmlns:xlink="http://www.w3.org/1999/xlink" version="1.1" id="Layer_1" x="0px" y="0px" viewBox="0 0 100 100" enable-background="new 0 0 100 100" xml:space="preserve" height="100px" width="100px">
<g>
	<path fill="#000000" d="M82.1,34.2v-0.4l-0.3-0.3l0,0L58.7,9l0,0l-0.3-0.3H58c0,0,0,0,0,0s0,0,0,0H26.8c-4.6,0-8.4,3.8-8.4,8.4   v66.5c0,4.6,3.8,8.4,8.4,8.4h46.9c4.6,0,8.4-3.8,8.4-8.4V34.2C82.1,34.3,82.1,34.3,82.1,34.2C82.1,34.3,82.1,34.3,82.1,34.2z    M80.1,83.6c0,3.5-2.9,6.4-6.4,6.4H26.8c-3.5,0-6.4-2.9-6.4-6.4V17.1c0-3.5,2.9-6.4,6.4-6.4h30.2v12.4H30.8c-0.6,0-1,0.4-1,1   s0.4,1,1,1h26.1v1.7c0,1.4,0.4,2.8,1,4H30.8c-0.6,0-1,0.4-1,1s0.4,1,1,1h28.7c1.5,1.5,3.6,2.4,5.8,2.4h14.8V83.6z M58.9,26.9v-2.7   V12.3l19.8,21H65.3C61.8,33.3,58.9,30.4,58.9,26.9z"/>
	<path fill="#000000" d="M69.5,46.2H30.8c-0.6,0-1,0.4-1,1s0.4,1,1,1h38.7c0.6,0,1-0.4,1-1S70.1,46.2,69.5,46.2z"/>
	<path fill="#000000" d="M29.8,39.5c0,0.6,0.4,1,1,1h38.7c0.6,0,1-0.4,1-1s-0.4-1-1-1H30.8C30.2,38.5,29.8,39,29.8,39.5z"/>
	<path fill="#000000" d="M69.5,53.9H30.8c-0.6,0-1,0.4-1,1s0.4,1,1,1h38.7c0.6,0,1-0.4,1-1S70.1,53.9,69.5,53.9z"/>
	<path fill="#000000" d="M69.5,61.6H30.8c-0.6,0-1,0.4-1,1s0.4,1,1,1h38.7c0.6,0,1-0.4,1-1S70.1,61.6,69.5,61.6z"/>
	<path fill="#000000" d="M69.5,69.3H30.8c-0.6,0-1,0.4-1,1s0.4,1,1,1h38.7c0.6,0,1-0.4,1-1S70.1,69.3,69.5,69.3z"/>
	<path fill="#000000" d="M69.5,76.9H30.8c-0.6,0-1,0.4-1,1s0.4,1,1,1h38.7c0.6,0,1-0.4,1-1S70.1,76.9,69.5,76.9z"/>
</g>
</svg>