<svg xmlns="http://www.w3.org/2000/svg" xmlns:xlink="http://www.w3.org/1999/xlink" version="1.1" width="96" height="96" viewBox="0 0 96 96">
<path d="M82 82.084h-10c-1.1 0-2-0.9-2-2 0-1.104 0.9-2 2-2h8.4l7.104-32h-79.012l7.108 32h4.4c1.104 0 2 0.896 2 2 0 1.1-0.896 2-2 2h-6c-0.936 0-1.752-0.656-1.952-1.572l-8-36c-0.132-0.592 0.012-1.212 0.392-1.684s0.952-0.748 1.56-0.748h84c0.608 0 1.18 0.276 1.564 0.748 0.376 0.476 0.524 1.092 0.392 1.684l-8 36c-0.204 0.916-1.020 1.572-1.956 1.572z" fill="#000000"/>
	<path d="M60 82.084h-28c-1.104 0-2-0.9-2-2 0-1.104 0.896-2 2-2h28c1.1 0 2 0.896 2 2s-0.9 2-2 2z" fill="#000000"/>
	<path d="M28 88.084c-4.412 0-8-3.588-8-8 0-4.416 3.588-8 8-8s8 3.584 8 8c0 4.412-3.588 8-8 8zM28 76.084c-2.204 0-4 1.796-4 4s1.796 4 4 4 4-1.796 4-4-1.796-4-4-4z" fill="#000000"/>
	<path d="M68 88.084c-4.416 0-8-3.588-8-8 0-4.416 3.584-8 8-8s8 3.584 8 8c0 4.412-3.584 8-8 8zM68 76.084c-2.204 0-4 1.796-4 4s1.796 4 4 4 4-1.796 4-4-1.796-4-4-4z" fill="#000000"/>
	<path d="M75.832 46.084h-56c-5.604 0-10.168-4.524-10.168-10.084 0-4.94 3.488-8.996 8.208-9.888 0.8-4.020 4-7.212 8.004-8.004-0.14-0.668-0.212-1.34-0.212-2.024 0-5.604 4.56-10.168 10.168-10.168 3.156 0 6.128 1.504 8.040 4 1.184 0.004 2.352 0.22 3.46 0.632 1.848-2.836 5.048-4.632 8.5-4.632 4.932 0 9.068 3.54 9.98 8.212 0.664-0.144 1.34-0.212 2.020-0.212 5.588 0 10.144 4.536 10.168 10.124 1.124 0.852 2.044 1.916 2.728 3.148 3.268 1.784 5.272 5.096 5.272 8.812 0 5.56-4.564 10.084-10.168 10.084zM27.832 21.916c-3.332 0-6.088 2.716-6.152 6.052-0.020 1.080-0.888 1.944-1.964 1.964-3.396 0.064-6.052 2.728-6.052 6.068 0 3.352 2.764 6.084 6.168 6.084h56c3.404 0 6.168-2.728 6.168-6.084 0-2.372-1.38-4.48-3.6-5.504-0.428-0.2-0.776-0.548-0.976-0.98-0.532-1.144-1.404-2.092-2.524-2.752-0.692-0.404-1.080-1.18-0.976-1.976 0.056-0.416 0.084-0.564 0.084-0.716 0-4.408-4.916-7.692-9.124-5.368-0.652 0.36-1.456 0.328-2.080-0.088-0.62-0.416-0.96-1.144-0.872-1.888l0.076-0.656c0-3.4-2.76-6.168-6.168-6.168-2.536 0-4.844 1.608-5.752 4-0.212 0.564-0.668 1-1.24 1.192-0.576 0.192-1.196 0.108-1.708-0.212-1.128-0.728-2.464-1.108-3.74-0.936-0.808 0.108-1.848-0.244-2.252-0.948-1.124-1.936-3.108-3.092-5.312-3.092-3.4 0-6.168 2.764-6.168 6.168 0 1.004 0.268 2 0.796 2.952 0.36 0.652 0.328 1.452-0.084 2.076s-1.132 0.948-1.88 0.884l-0.668-0.072z" fill="#000000"/>
	<path d="M92 90.084h-88c-1.104 0-2-0.9-2-2 0-1.104 0.896-2 2-2h88c1.1 0 2 0.896 2 2s-0.9 2-2 2z" fill="#000000"/>
</svg>