<svg xmlns="http://www.w3.org/2000/svg" xmlns:xlink="http://www.w3.org/1999/xlink" version="1.1" id="Layer_1" x="0px" y="0px" width="90px" height="90px" viewBox="25.333 23 90 90" enable-background="new 25.333 23 90 90" xml:space="preserve">
<path stroke="#000000" stroke-linecap="round" stroke-linejoin="round" stroke-miterlimit="10" d="M53.125-15.125"/>
<g>
	<path d="M105.834,73.924l-23.007,9.226c-0.494,0.198-0.735,0.759-0.536,1.252c0.15,0.377,0.512,0.605,0.894,0.605   c0.119,0,0.241-0.022,0.357-0.069l23.009-9.226c0.494-0.197,0.733-0.758,0.536-1.253C106.887,73.965,106.326,73.722,105.834,73.924   z"/>
	<path d="M91.437,64.571c0.15,0.376,0.512,0.604,0.894,0.604c0.118,0,0.24-0.022,0.357-0.069l14.258-5.717   c0.493-0.199,0.733-0.759,0.534-1.252c-0.197-0.494-0.756-0.733-1.251-0.535l-14.258,5.717   C91.478,63.516,91.236,64.077,91.437,64.571z"/>
	<path d="M115.718,53.158c-0.632-0.756-3.588-4.233-5.397-5.467v-2.536c0-0.007-0.004-0.013-0.004-0.02   c0-0.01,0.004-0.021,0.004-0.031c-0.008-0.109-0.032-0.213-0.073-0.311c-0.008-0.023-0.024-0.04-0.036-0.063   c-0.039-0.08-0.086-0.154-0.146-0.219c-0.026-0.028-0.055-0.051-0.083-0.076c-0.058-0.051-0.12-0.093-0.189-0.128   c-0.034-0.018-0.069-0.037-0.107-0.05c-0.022-0.009-0.041-0.023-0.065-0.03L64.168,31.471c-0.163-0.046-0.338-0.047-0.503-0.005   l-33.01,8.611c-0.409,0.107-0.701,0.469-0.719,0.891c-0.001,0.037,0.009,0.07,0.013,0.106c-0.002,0.023-0.014,0.043-0.014,0.066   v11.214c-0.675,0.188-1.753,0.506-2.987,0.941c-2.169,0.766-2.377,3.646-2.159,5.229c0.049,0.347,0.281,0.641,0.609,0.767   l4.541,1.746l0.148,15.189c0,0.01,0.005,0.016,0.005,0.022c0.001,0.071,0.026,0.138,0.043,0.206   c0.014,0.054,0.019,0.109,0.041,0.159c0.024,0.055,0.065,0.098,0.1,0.145c0.037,0.053,0.066,0.109,0.111,0.152   c0.039,0.036,0.089,0.06,0.133,0.089c0.06,0.041,0.116,0.084,0.183,0.11c0.009,0.004,0.015,0.012,0.023,0.015L77.62,93.813   c0.104,0.036,0.213,0.056,0.321,0.056c0.123,0,0.245-0.023,0.359-0.069l0.014-0.006c0.002-0.001,0.004-0.001,0.006-0.002   l31.398-12.591c0.386-0.154,0.607-0.533,0.594-0.927c0-0.017,0.01-0.028,0.01-0.047V54.767c1.753-0.052,3.385-0.07,4.626-0.028   c0.378,0.017,0.732-0.199,0.899-0.541C116.014,53.856,115.962,53.45,115.718,53.158z M63.898,33.396l42.47,11.921L77.921,56.725   L34.169,41.152L63.898,33.396z M69.83,87.489c-0.635-1.037-2.077-3.201-5.164-7.14c-1.474-1.881-3.013-3.436-4.441-4.688   l17.396,6.191c0.22,0.077,0.463,0.073,0.681-0.015l4.833-1.939c-1.016,0.756-2.259,1.616-3.763,2.56   C74.858,85.29,71.31,86.877,69.83,87.489z M26.657,57.712c-0.022-0.874,0.102-2.308,0.931-2.6c0.901-0.318,1.719-0.57,2.346-0.753   v0.422c0,0.059,0.023,0.11,0.034,0.166c-0.08,0.455,0.158,0.915,0.607,1.074l23.368,8.317c-0.238,0.129-0.47,0.273-0.686,0.446   c-0.887,0.71-1.531,1.712-1.912,2.423L26.657,57.712z M31.871,61.782l19.612,7.543c0.113,0.043,0.23,0.064,0.346,0.064   c0.384,0,0.749-0.233,0.897-0.612c0.007-0.017,0.659-1.63,1.733-2.488c0.843-0.674,2.268-0.838,2.757-0.844l0,0h0.001   c0.001,0,0.004,0,0.006,0c0.004,0,0.008-0.002,0.012-0.003c0.112-0.002,0.22-0.028,0.322-0.067   c0.035-0.014,0.064-0.031,0.097-0.047c0.07-0.037,0.134-0.08,0.194-0.133c0.027-0.024,0.055-0.048,0.08-0.076   c0.054-0.061,0.098-0.129,0.136-0.203c0.015-0.03,0.034-0.055,0.047-0.086c0.003-0.009,0.009-0.015,0.014-0.024   c0.019-0.054,0.014-0.108,0.023-0.163c0.009-0.056,0.033-0.107,0.033-0.166c0-0.008-0.005-0.016-0.005-0.023   c-0.003-0.099-0.03-0.192-0.062-0.283c-0.009-0.025-0.009-0.053-0.021-0.077c-0.044-0.099-0.109-0.186-0.185-0.266   c-0.012-0.013-0.019-0.03-0.031-0.042c-0.031-0.03-0.074-0.047-0.109-0.073c-0.073-0.053-0.143-0.105-0.226-0.136   c-0.001,0-0.001-0.001-0.001-0.001l-25.681-9.14V42.375l45.119,16.059v16.095l-20.575-7.322c-0.502-0.179-1.052,0.083-1.229,0.584   c-0.179,0.502,0.083,1.052,0.583,1.23l21.221,7.553v3.004l-22.799-8.113c-0.479-0.169-1.011,0.063-1.209,0.534   c-0.198,0.471,0.006,1.015,0.464,1.24c0.052,0.025,5.262,2.619,9.715,8.301c2.97,3.789,4.365,5.871,4.971,6.85L32.005,75.535   L31.871,61.782z M70.584,89.265c1.154-0.474,3.42-1.48,6.395-3.147v5.424L70.584,89.265z M108.396,79.657l-29.49,11.825v-6.481   c0.485-0.29,0.978-0.59,1.489-0.91c6.218-3.901,8.191-6.45,8.272-6.559c0.262-0.346,0.262-0.823-0.002-1.166   c-0.262-0.346-0.723-0.47-1.123-0.31l-8.637,3.463v-2.974l10.414-4.175c0.495-0.2,0.734-0.76,0.536-1.253   c-0.197-0.494-0.758-0.733-1.253-0.536l-9.697,3.89V58.406l29.488-11.826v1.651c0,0.001,0,0.002,0,0.002v1.092l-10.563,4.235   c-0.014,0.006-0.023,0.018-0.036,0.024c-0.064,0.029-0.115,0.07-0.171,0.112c-0.047,0.035-0.097,0.063-0.134,0.105   c-0.043,0.045-0.071,0.1-0.104,0.153c-0.032,0.052-0.067,0.1-0.091,0.157c-0.021,0.053-0.025,0.111-0.035,0.168   c-0.014,0.067-0.026,0.131-0.024,0.201c0,0.016-0.008,0.029-0.008,0.044c0.006,0.057,0.03,0.106,0.045,0.16   c0.01,0.042,0.006,0.086,0.022,0.128c0.004,0.012,0.016,0.022,0.021,0.034c0.015,0.035,0.035,0.064,0.056,0.097   c0.038,0.064,0.079,0.123,0.13,0.176c0.026,0.027,0.055,0.05,0.083,0.074c0.061,0.048,0.122,0.086,0.19,0.121   c0.03,0.014,0.058,0.03,0.09,0.042c0.104,0.038,0.213,0.063,0.324,0.063h0.001c0.023,0,0.048-0.001,0.07-0.002   c0.077-0.006,5.215-0.382,10.132-0.581v24.82H108.396z M104.131,53.111l5.586-2.24c0.004-0.001,0.006-0.003,0.007-0.004   c0.093-0.039,0.172-0.099,0.247-0.162c0.021-0.017,0.049-0.026,0.067-0.045c0.049-0.049,0.079-0.114,0.117-0.173   c0.028-0.045,0.067-0.083,0.09-0.133c0.012-0.028,0.01-0.062,0.019-0.09c0.014-0.04,0.02-0.08,0.026-0.121   c0.764,0.711,1.691,1.684,2.557,2.647C110.223,52.807,106.938,52.955,104.131,53.111z"/>
</g>
<path d="M110.56,23.909"/>
</svg>