<svg xmlns="http://www.w3.org/2000/svg" xmlns:xlink="http://www.w3.org/1999/xlink" version="1.1" id="Your_Icon" x="0px" y="0px" width="100px" height="100px" viewBox="0 0 100 100" enable-background="new 0 0 100 100" xml:space="preserve">
<path d="M84.175,34.768L56.589,4.159L54.45,1.741l-2.755,1.705L32.676,15.124l-0.543,0.337l-0.41,0.495l-15.8,18.932L15,35.979  v1.422v38.592v1.95l1.569,1.178l13.415,10.164l0.373,0.28l0.426,0.186l17.734,7.785l1.644,0.722l1.621-0.771L82.95,82.566L85,81.501  v-2.479v-41.62V35.89L84.175,34.768z M31.271,72.192l9.966,9.521l-8.282,4.106L31.271,72.192z M21.647,39.481l9.816,5.272  l8.065,28.481L31,56.359l0,0l0,0L21.647,39.481z M30.105,33.782l0.881,8.573l-9.682-5.126L30.105,33.782z M28.567,56.813L19,73.978  V39.156L28.567,56.813z M30.93,69.152l-0.204-8.177l8.512,16.114L30.93,69.152z M43.728,81.2L33.492,45.209l25.992,2.718  l6.872,15.822L66,85.983l0,0l-2.881,1.651L43.728,81.2z M66.338,39.62l6.923,14.971l-11.747-7.849L66.338,39.62z M67.957,62.006  l-5.515-12.283l11.492,7.679L67.957,62.006z M68.55,64.027l6.528-5.028l5.931,20.233l-12.575,5.984L68.55,64.027z M76,57.008  L76,57.008L76,57.008l-7.94-17.401L81,45.446v28.323L76,57.008z M81,43.293l-13.77-6.306l-0.728-15.743L81,37.401V43.293z   M53.738,6.792L65,19.206l0,0l0.607,18.142l-5.892,8.624l-26.644-2.784l-1.268-10.71L35,18.121l0,0L53.738,6.792z M33.24,20.27  l-3.107,11.393l-9.494,3.719L33.24,20.27z M20,76L20,76l8.844-15.8l0.178,9.16l-2.905,11.751L19.918,76H20z M27.801,82.699  l1.848-7.653l1.232,9.988L27.801,82.699z M50.096,93.943l-15.437-6.777l8.344-4.137l17.779,5.83L50.096,93.943z"/>
</svg>