<svg xmlns="http://www.w3.org/2000/svg" xmlns:xlink="http://www.w3.org/1999/xlink" version="1.1" id="Layer_1" x="0px" y="0px" viewBox="0 0 100 100" style="enable-background:new 0 0 100 100;" xml:space="preserve" height="100px" width="100px">
<g>
	<path d="M16.066,38.869c0.155,0.211,0.396,0.323,0.638,0.323c0.162,0,0.326-0.049,0.467-0.153c0.353-0.258,0.428-0.753,0.171-1.105   l-2.994-4.085c-0.259-0.352-0.755-0.428-1.105-0.17c-0.353,0.258-0.428,0.753-0.171,1.105L16.066,38.869z"/>
	<path d="M25.476,35.441c0.04,0,0.078-0.003,0.118-0.009c0.431-0.064,0.73-0.467,0.665-0.898l-0.752-5.021   c-0.066-0.434-0.483-0.73-0.898-0.665c-0.431,0.064-0.73,0.467-0.665,0.898l0.752,5.021C24.755,35.16,25.092,35.441,25.476,35.441z   "/>
	<path d="M11.038,44.869l-4.541-2.269c-0.387-0.194-0.864-0.037-1.061,0.354c-0.195,0.39-0.035,0.865,0.355,1.06l4.541,2.269   c0.114,0.057,0.233,0.083,0.353,0.083c0.29,0,0.569-0.16,0.708-0.437C11.587,45.538,11.428,45.064,11.038,44.869z"/>
	<path d="M93.505,28.254l-3.748-2.476c-1.12-0.739-2.743-0.405-3.477,0.706l-8.646,12.898v-0.792V38.29L63.959,23.788l-0.006-0.006   l-0.205-0.218h-0.319c-0.003,0-0.005-0.001-0.007-0.001s-0.005,0.001-0.007,0.001h-18.13c-2.782,0-5.045,2.262-5.045,5.044v14.316   c-5.295-5.917-14.405-6.926-21.011-2.082c-7.026,5.148-8.602,14.985-3.514,21.929c2.912,3.971,7.574,6.316,12.54,6.328l1.081,1.475   c0.001,0.159,0.052,0.319,0.152,0.457c0.102,0.139,0.241,0.235,0.391,0.284l0.641,0.875c1.151,1.57,2.709,2.67,4.429,3.264   c0.009,0.013,0.016,0.025,0.025,0.038c0.229,0.312,0.641,0.405,0.976,0.247c0.681,0.153,1.378,0.23,2.078,0.23   c1.941,0,3.906-0.597,5.596-1.835c0.7-0.513,1.298-1.111,1.813-1.759h27.152c2.782,0,5.045-2.262,5.045-5.044v-10.86l16.582-24.736   C94.979,30.58,94.66,29.018,93.505,28.254z M76.121,67.331c0,1.947-1.585,3.531-3.532,3.531H46.425   c0.596-1.147,0.955-2.395,1.049-3.667c0.095-0.195,0.105-0.425,0.025-0.631c0.012-1.921-0.566-3.855-1.782-5.513l-2.268-3.088   c1.383-4.406,0.737-9.161-1.699-13.003V28.608c0-1.947,1.585-3.531,3.532-3.531h17.381v9.227c0,2.782,2.263,5.044,5.045,5.044   h8.411v2.292L65.612,57.317c0,0.001-0.001,0.001-0.001,0.001c-0.059,0.09-0.095,0.187-0.113,0.287   c-0.28,0.809-0.301,2.639-0.213,4.632c-0.009,0.056-0.04,0.105-0.036,0.163l0.08,1.337c-1.144-0.17-1.992-0.973-2.186-1.805   c-0.759-3.259-3.216-3.563-5.191-3.808c-2.062-0.256-3.359-0.513-3.999-2.503c-0.34-1.058,0.134-1.782,1.152-3.189   c1.047-1.449,2.483-3.434,2.947-6.73c0.295-2.093-0.477-3.246-1.177-3.843c-2.452-2.094-7.543-0.617-8.117-0.442   c-0.479,0.147-0.749,0.654-0.601,1.134c0.143,0.479,0.649,0.752,1.133,0.602c1.204-0.369,4.967-1.143,6.405,0.086   c0.524,0.448,0.708,1.17,0.561,2.211c-0.402,2.85-1.581,4.48-2.622,5.919c-1.052,1.455-2.046,2.83-1.409,4.809   c1.027,3.194,3.51,3.502,5.504,3.749c2.086,0.259,3.195,0.484,3.647,2.419c0.374,1.608,2.005,3.233,4.333,3.246   c0.014,0.011,0.021,0.029,0.037,0.039c0.008,0.006,0.02,0.003,0.028,0.008c0.01,0.007,0.015,0.019,0.025,0.026   c0.124,0.083,0.27,0.126,0.417,0.126c0.081,0,0.162-0.013,0.241-0.04c2.926-0.985,6.534-2.338,7.091-3.181l0.002-0.003   c0,0,0.001-0.001,0.001-0.001c0-0.001,0-0.001,0.001-0.002l2.571-3.835V67.331z M43.602,72.065   c-0.282,0.282-0.581,0.551-0.911,0.794c-1.47,1.076-3.195,1.591-4.872,1.527l4.305-3.155l0.625-0.458l0.642-0.471l2.223-1.629   c-0.215,0.747-0.553,1.46-0.986,2.123c-0.147,0.226-0.317,0.437-0.489,0.649C43.967,71.657,43.798,71.869,43.602,72.065z    M31.348,70.647l6.306-4.62c0.006-0.004,0.012-0.009,0.018-0.013s0.013-0.009,0.019-0.014l2.547-1.867l0.756-0.555l0.756-0.554   l2.245-1.646l0.446,0.608c0.219,0.298,0.411,0.605,0.579,0.921l-3.271,2.397l-0.756,0.554l-0.756,0.554l-7.741,5.672   c-0.25-0.256-0.485-0.533-0.703-0.829L31.348,70.647z M28.632,67.513c-4.579,0.114-8.957-2.012-11.642-5.677   c-4.574-6.241-3.149-15.087,3.172-19.72c6.321-4.633,15.185-3.326,19.757,2.915c0.118,0.161,0.211,0.334,0.321,0.499   c0.274,0.41,0.53,0.829,0.756,1.262c0.295,0.563,0.543,1.144,0.756,1.737c1.062,2.96,1.129,6.243,0.074,9.317   c-0.084,0.244-0.043,0.516,0.111,0.724l1.126,1.533l-1.31,0.96l-0.756,0.554l-0.756,0.554l-2.863,2.098l-5.388-7.353   c1.569-1.528,1.84-3.997,0.522-5.794c-0.256-0.353-0.753-0.427-1.104-0.17c-0.353,0.258-0.428,0.752-0.17,1.104   c0,0,0,0.001,0,0.001c0.861,1.174,0.659,2.798-0.4,3.78c-0.082,0.076-0.157,0.157-0.25,0.225c-0.169,0.124-0.349,0.224-0.536,0.308   c-0.501,0.226-1.054,0.308-1.611,0.226c-0.756-0.112-1.419-0.51-1.868-1.122c0,0,0,0,0,0c-0.257-0.354-0.753-0.428-1.104-0.17   c-0.353,0.259-0.428,0.753-0.17,1.105c0.7,0.955,1.734,1.577,2.91,1.751c0.222,0.033,0.443,0.049,0.663,0.049   c0.627,0,1.239-0.144,1.811-0.399l5.419,7.393l-5.686,4.167l-1.127-1.536c-0.148-0.203-0.386-0.323-0.637-0.323   C28.645,67.513,28.638,67.513,28.632,67.513z M33.758,73.122l6.579-4.821l0.704-0.516l0.711-0.52l3.881-2.844   c0.191,0.677,0.285,1.374,0.287,2.069l-3.642,2.669l-0.614,0.45l-0.612,0.448l-5.407,3.963   C34.982,73.809,34.347,73.509,33.758,73.122z M64.177,26.225l10.947,11.61h-7.415c-1.947,0-3.532-1.584-3.532-3.531V26.225z    M68.803,63.3l-2.011-1.329c-0.047-1.19-0.06-2.265-0.027-2.983l4.783,3.161C70.894,62.47,69.907,62.879,68.803,63.3z    M76.121,56.015l-3.411,5.089l-5.417-3.58l8.828-13.169l0.756-1.128l0.757-1.129l9.905-14.776c0.186-0.281,0.498-0.448,0.835-0.448   c0.196,0,0.386,0.057,0.551,0.165l3.746,2.476c0.461,0.304,0.588,0.925,0.287,1.381L77.634,53.759l-0.757,1.129L76.121,56.015z"/>
</g>
</svg>