<svg xmlns="http://www.w3.org/2000/svg" xmlns:xlink="http://www.w3.org/1999/xlink" version="1.1" id="Layer_1" x="0px" y="0px" width="100px" height="100px" viewBox="0 0 100 100" enable-background="new 0 0 100 100" xml:space="preserve">
<path fill="#000000" d="M56.257,42.775l8.673-10.113L49.546,20.573L34.159,32.662l8.673,10.112  c-10.087,2.957-17.038,12.139-17.038,22.767c0,13.096,10.654,23.751,23.752,23.751c13.095,0,23.75-10.654,23.75-23.751  C73.295,54.931,66.338,45.732,56.257,42.775z M52.634,44.153l3.406-9.169c2.081-0.184,3.764-0.432,5.027-0.665L52.634,44.153z   M45.082,35.133c1.357,0.079,2.842,0.129,4.464,0.129c1.622,0,3.106-0.05,4.462-0.129l-4.462,12.013L45.082,35.133z M64.291,65.541  c0,8.132-6.616,14.748-14.746,14.748c-8.132,0-14.748-6.616-14.748-14.748c0-8.131,6.616-14.746,14.748-14.746  C57.676,50.795,64.291,57.41,64.291,65.541z M58.09,29.645l3.427,2.694c-1.101,0.225-2.689,0.497-4.746,0.711L58.09,29.645z   M56.568,28.448l-1.105,2.853l-3.174-6.217L56.568,28.448z M54.378,33.251c-1.45,0.096-3.058,0.158-4.833,0.158  c-1.776,0-3.384-0.062-4.835-0.158l4.835-9.464L54.378,33.251z M46.802,25.085l-3.175,6.216l-1.104-2.853L46.802,25.085z M41,29.644  l1.318,3.405c-2.057-0.214-3.646-0.486-4.746-0.711L41,29.644z M38.023,34.319c1.263,0.232,2.946,0.481,5.027,0.665l3.406,9.168  L38.023,34.319z M49.546,87.439c-12.075,0-21.899-9.823-21.899-21.898c0-10.081,6.779-18.76,16.513-21.22l4.022,4.689  c-8.517,0.697-15.236,7.837-15.236,16.53c0,9.153,7.446,16.601,16.6,16.601c9.152,0,16.599-7.447,16.599-16.601  c0-8.693-6.719-15.833-15.235-16.53l4.023-4.692c9.729,2.459,16.51,11.158,16.51,21.222C71.442,77.616,61.62,87.439,49.546,87.439z   M64.11,19.181c0.05,1.901,0.212,3.74,0.454,5.175c0.27,1.714,0.655,2.857,0.655,2.857s0.385-1.143,0.655-2.857  c0.243-1.436,0.404-3.276,0.454-5.178c1.901-0.055,3.74-0.224,5.175-0.462c1.714-0.268,2.857-0.644,2.857-0.644  s-1.143-0.376-2.857-0.644c-1.436-0.238-3.276-0.407-5.178-0.462c-0.055-1.902-0.223-3.742-0.462-5.178  c-0.268-1.714-0.644-2.856-0.644-2.856s-0.376,1.143-0.644,2.856c-0.238,1.435-0.407,3.274-0.462,5.175  c-1.902,0.05-3.742,0.212-5.178,0.454c-1.714,0.27-2.857,0.655-2.857,0.655s1.143,0.385,2.857,0.655  C60.369,18.969,62.209,19.131,64.11,19.181z M30.836,22.799c0.075,0.74,0.196,1.452,0.393,2.021c0.27,0.837,0.655,1.395,0.655,1.395  s0.384-0.558,0.655-1.395c0.197-0.571,0.318-1.285,0.394-2.027c0.74-0.08,1.451-0.205,2.021-0.398  c0.837-0.268,1.395-0.644,1.395-0.644s-0.558-0.376-1.395-0.644c-0.571-0.194-1.285-0.319-2.026-0.398  c-0.08-0.742-0.205-1.456-0.399-2.026c-0.268-0.837-0.644-1.395-0.644-1.395s-0.376,0.558-0.644,1.395  c-0.194,0.569-0.318,1.281-0.398,2.021c-0.742,0.075-1.456,0.196-2.027,0.394c-0.837,0.27-1.395,0.655-1.395,0.655  s0.558,0.385,1.395,0.655C29.385,22.602,30.096,22.723,30.836,22.799z"/>
</svg>