<?xml version="1.0" encoding="iso-8859-1"?>
<!DOCTYPE svg PUBLIC "-//W3C//DTD SVG 1.1//EN" "http://www.w3.org/Graphics/SVG/1.1/DTD/svg11.dtd">
<svg  version="1.1" xmlns="http://www.w3.org/2000/svg" xmlns:xlink="http://www.w3.org/1999/xlink" x="0px" y="0px" width="512px"
	 height="512px" viewBox="0 0 512 512" style="enable-background:new 0 0 512 512;" xml:space="preserve"><g fill="#3f9d2f" id="afcae5a789ccd549f9c6e2a2f80e3dad"><path d="M366.659,295.991c-6.126-14.496-15.043-27.195-26.751-38.102c-11.532-10.732-30.241-22.472-56.092-35.212L283.741,107.7
		c18.184,3.808,35.732,11.759,52.649,23.858l21.349-60.53c-16.214-12.971-40.896-21.076-74.038-24.321L283.966,0.5h-61.882v48.911
		c-25.942,6.305-46.612,18.825-62.013,37.562c-15.401,18.738-23.106,40.355-23.106,64.852c0,16.578,2.839,31.618,8.515,45.126
		c5.671,13.512,13.825,25.134,24.456,34.862c9.639,8.819,27.039,19.723,52.149,32.687v125.684
		c-19.754-3.839-39.751-12.848-59.986-27.04l-25.942,62.966c25.942,16.575,54.586,25.939,85.928,28.101V511.5h61.882v-62.154
		c28.823-7.027,51.345-19.954,67.558-38.779c16.217-18.818,24.321-40.844,24.321-66.07
		C375.845,326.662,372.785,310.493,366.659,295.991z M207.223,151.284c0-13.329,4.46-24.362,13.377-33.101
		c0.482-0.473,0.98-0.926,1.483-1.373v65.229C212.185,171.61,207.223,161.358,207.223,151.284z M283.924,385.333l-0.054-82.278
		c2.321,2.181,4.396,4.332,6.177,6.448c10.542,12.526,15.811,25.9,15.811,40.128C305.857,366.578,298.544,378.477,283.924,385.333z"
		/></g></svg>