<svg xmlns="http://www.w3.org/2000/svg" xmlns:xlink="http://www.w3.org/1999/xlink" version="1.1" id="Layer_1" x="0px" y="0px" width="100px" height="100px" viewBox="0 0 100 100" enable-background="new 0 0 100 100" xml:space="preserve">
<path d="M95.051,39.028c0-0.225-0.09-0.439-0.25-0.597l-9.078-9.015c-0.001-0.001-0.002-0.002-0.002-0.003  c-0.024-0.022-0.05-0.041-0.075-0.061c-0.014-0.012-0.027-0.025-0.043-0.037c-0.026-0.018-0.055-0.031-0.084-0.046  c-0.015-0.008-0.03-0.019-0.047-0.026L71.46,22.997l-0.003,0.004c-0.083-0.036-0.17-0.065-0.26-0.074l-21.253-2.042  c-0.053-0.005-0.107-0.005-0.162,0l-20.981,2.043c-0.081,0.006-0.16,0.03-0.234,0.061l-0.002-0.003l-14.406,5.852  c-0.019,0.009-0.035,0.02-0.052,0.03c-0.032,0.015-0.066,0.031-0.098,0.052c-0.021,0.014-0.04,0.032-0.059,0.047  c-0.027,0.022-0.053,0.042-0.078,0.067c-0.004,0.005-0.011,0.009-0.015,0.014l-8.684,9.41c-0.144,0.155-0.224,0.36-0.224,0.571  v3.687c0,0.008,0.002,0.016,0.002,0.024c0.002,0.054,0.007,0.108,0.02,0.162c0.001,0.005,0.001,0.01,0.002,0.015  c0.014,0.056,0.036,0.111,0.062,0.165c0.006,0.014,0.014,0.026,0.021,0.04c0.023,0.04,0.048,0.078,0.076,0.113  c0.009,0.013,0.018,0.025,0.028,0.038c0.005,0.005,0.009,0.013,0.014,0.018c0.019,0.019,0.039,0.032,0.059,0.05l-0.003,0.003  L49.3,82.939c0.161,0.145,0.362,0.216,0.563,0.216c0.202,0,0.402-0.071,0.563-0.214l44.342-39.597l-0.001-0.002  c0.026-0.024,0.053-0.047,0.077-0.075c0.004-0.003,0.005-0.009,0.01-0.012c0.008-0.01,0.015-0.022,0.023-0.032  c0.027-0.037,0.052-0.074,0.073-0.115c0.007-0.015,0.015-0.028,0.021-0.045c0.021-0.044,0.036-0.089,0.049-0.135  c0.002-0.009,0.006-0.019,0.008-0.028c0.014-0.055,0.02-0.112,0.02-0.17c0.001-0.005,0.003-0.011,0.003-0.016V39.028z   M28.243,34.136l6.327,6.662L18.78,48.165L16.089,38.07L28.243,34.136z M49.866,36.254l12.945,5.271l-12.61,10.857L37.566,41.327  L49.866,36.254z M63.899,42.812l2.047,8.811l-6.539,1.033h-6.938L63.899,42.812z M71.771,34.155l11.821,4.119l-1.495,9.307  L65.82,40.93L71.771,34.155z M80.126,48.597l-5.641,1.512l-6.873,1.234l-2.016-8.683L80.126,48.597z M65.371,53.423l-9.408,16.493  l-4.635-15.574h8.144c0.045,0,0.089-0.004,0.132-0.011L65.371,53.423z M47.953,52.656h-7.562l-5.766-0.848l1.895-9.157  L47.953,52.656z M49.042,54.342l-4.977,15.57l-8.897-16.318l5.04,0.74c0.04,0.006,0.082,0.008,0.122,0.008H49.042z M32.951,51.579  l-7.056-0.882l-5.278-1.527l14.204-6.629L32.951,51.579z M16.958,47.872l-5.966-2.635l3.746-5.689L16.958,47.872z M25.491,52.335  c0.043,0.014,0.086,0.021,0.129,0.026l7.465,0.933l8.192,15.028L21.656,51.226L25.491,52.335z M50.168,56.357l4.639,15.587  l-4.927,8.638l-4.699-8.621L50.168,56.357z M67.51,53.074l7.309-1.312c0.022-0.004,0.047-0.009,0.068-0.016l4.522-1.213  L58.873,68.219L67.51,53.074z M85.055,39.805l4.074,5.434l-5.298,2.173L85.055,39.805z M90.619,44.416l-3.196-4.263l5.221,2.703  L90.619,44.416z M85.126,37.066l-4.672-7.318l4.171,1.011l6.859,9.598L85.126,37.066z M78.367,29.615l4.15,6.499l-9.129-3.181  L78.367,29.615z M64.17,40.255l-10.841-4.413l16.136-1.619L64.17,40.255z M36.201,40.065l-5.534-5.825l15.773,1.602L36.201,40.065z   M17.33,35.895l4.638-6.205l4.638,3.205L17.33,35.895z M21.466,27.728l-0.147,0.022l0.29-0.118L21.466,27.728z M14.972,30.397  l4.906-0.729L14.5,36.865l-6.076,3.407L14.972,30.397z M12.458,39.944l-2.936,4.458L7.349,42.81L12.458,39.944z M17.695,50.042  l6.2,7.803l-11.094-9.966L17.695,50.042z M24.61,56.036l18.991,16.547l3.169,5.816L31.416,64.604L24.61,56.036z M56.378,72.591  l18.925-16.296l-7.412,8.79L53.156,78.243L56.378,72.591z M83.272,49.464l3.905-1.603l-10.35,9.242L83.272,49.464z M93.363,40.085  l-1.738-2.432l1.738,1.727V40.085z M49.863,22.572l20.976,2.014l6.222,3.873l-5.843,3.893l-21.354,2.143l-21.075-2.141l-5.513-3.811  l5.9-3.958L49.863,22.572z M7.954,37.931l-1.318,1.987v-0.56L7.954,37.931z"/>
</svg>