<svg xmlns="http://www.w3.org/2000/svg" xmlns:xlink="http://www.w3.org/1999/xlink" version="1.1" id="Calque_2" x="0px" y="0px" width="100px" height="100px" viewBox="0 0 100 100" enable-background="new 0 0 100 100" xml:space="preserve">
<path d="M97.195,69.387l-0.641-7.131c-0.01-0.106-0.055-0.208-0.129-0.288l-4.036-4.267l-0.002-0.21V57.49L92.31,43.632  c-0.001-0.109-0.04-0.216-0.108-0.301l-4.455-5.475l-0.005-0.18l-0.219-3.437c0-0.002,0-0.003,0-0.004l-0.021-0.325  c-0.002-0.02-0.004-0.039-0.007-0.058l-2.404-12.818c-0.027-0.143-0.118-0.267-0.248-0.336c-0.129-0.068-0.282-0.074-0.417-0.015  l-11.848,5.179l-10.834-7.694c-0.001-0.001-0.002-0.002-0.003-0.003c-0.002-0.001-0.004-0.003-0.006-0.004  c-0.033-0.022-0.067-0.039-0.103-0.052c-0.008-0.003-0.017-0.005-0.025-0.007c-0.032-0.009-0.063-0.016-0.095-0.019  c-0.009-0.001-0.019-0.003-0.028-0.003c-0.04-0.001-0.079,0.001-0.117,0.009c-0.006,0.001-0.01,0.004-0.015,0.005  c-0.035,0.008-0.067,0.02-0.1,0.036c-0.005,0.003-0.01,0.004-0.016,0.006l-9.723,5.29L35.021,9.381  c-0.188-0.161-0.469-0.151-0.646,0.021l-21.23,20.589c-0.001,0-0.001,0.001-0.002,0.003c-0.026,0.025-0.047,0.052-0.067,0.083  c-0.005,0.009-0.009,0.018-0.015,0.027c-0.012,0.023-0.022,0.045-0.032,0.07c-0.004,0.012-0.008,0.024-0.011,0.038  c-0.003,0.011-0.007,0.021-0.01,0.032c-0.002,0.013-0.002,0.026-0.002,0.039C13.002,30.297,13,30.309,13,30.322  c-0.001,0.032,0.001,0.062,0.006,0.093c0,0.004,0,0.008,0.001,0.013l0.001,0.006c0,0.001,0,0.002,0,0.003l0.601,3.075L9.64,39.193  C9.635,39.2,9.632,39.21,9.627,39.217C9.618,39.233,9.608,39.25,9.6,39.266c-0.006,0.012-0.01,0.025-0.015,0.039  c-0.007,0.017-0.012,0.035-0.016,0.053c-0.004,0.013-0.005,0.027-0.008,0.04c-0.002,0.019-0.004,0.037-0.005,0.055  c0,0.014,0,0.027,0,0.042c0.001,0.019,0.004,0.037,0.008,0.056c0,0.009,0,0.018,0.002,0.026l2.921,12.708L3.133,67.902  c-0.004,0.006-0.007,0.014-0.011,0.021c-0.007,0.016-0.015,0.031-0.021,0.045s-0.01,0.027-0.015,0.043  c-0.005,0.015-0.008,0.032-0.012,0.048c-0.002,0.014-0.005,0.029-0.006,0.045c-0.002,0.016-0.002,0.029-0.002,0.049  c0,0.016,0,0.027,0.002,0.043c0.002,0.018,0.005,0.033,0.008,0.051c0.002,0.008,0.002,0.015,0.004,0.022l1.672,6.387  c-0.941,0.577-1.907,1.161-2.341,1.408c-0.01,0.008-0.021,0.012-0.031,0.02c-0.093,0.052-0.159,0.085-0.189,0.101  c-0.124,0.041-0.234,0.141-0.291,0.259c-0.103,0.216-0.232,0.486,2.557,7.897c0.069,0.185,0.242,0.306,0.438,0.312l5.696,0.144  c0,0,0,0,0.001,0l14.416,0.359c0.001,0,0.001,0,0.001,0l2.808,0.072c0,0,0,0,0.001,0l50.54,1.266c0.004,0,0.008,0,0.012,0  c0.007,0,0.014,0,0.021,0c0.034,0,0.067-0.007,0.101-0.015c0,0,0.001,0,0.002,0l8.494-2.258c0.001,0,0.002,0,0.002,0l1.758-0.465  c0.216-0.059,0.363-0.257,0.356-0.48l-0.01-0.343l8.033-13.255C97.18,69.592,97.204,69.491,97.195,69.387z M95.58,62.476  l-2.414,1.787l-4.342-1.065c1.706-2.479,2.593-3.854,3.057-4.632L95.58,62.476z M91.35,43.806l0.009,1.629l-3.467-2.762  l-0.097-3.236L91.35,43.806z M87.504,61.891l0.021,0.729l-6.024-3.709l0.142-5.612L87.504,61.891z M21.173,70.269  c0.002,0.022,0.005,0.048,0.01,0.073c0.001,0.002,0.001,0.004,0.001,0.006c0.143,0.562,0.294,1.167,0.451,1.791l-0.871-0.688  l0.072-0.307c0.009-0.039,0.013-0.076,0.013-0.113l-0.019-9.731l3.736,3.929l-3.31,4.728c-0.001,0-0.001,0.004-0.003,0.004  c-0.015,0.023-0.027,0.047-0.038,0.072c-0.003,0.006-0.007,0.012-0.008,0.018c-0.014,0.028-0.023,0.06-0.029,0.095  c0,0.004,0,0.006,0,0.008c-0.006,0.031-0.009,0.062-0.008,0.094C21.17,70.253,21.172,70.261,21.173,70.269z M14.111,71.869  c1.221-0.038,3.415,0.055,5.52,0.208l-0.766,3.266L14.111,71.869z M17.963,75.875l-7.859,1.32l2.955-4.904L17.963,75.875z   M13.92,70.93l5.95-9.212l0.019,9.26l-0.035,0.15C16.706,70.891,14.931,70.864,13.92,70.93z M20.522,72.486l0.892,0.704  l-1.388,1.411L20.522,72.486z M25.243,65.94l1.89,1.987l-2.584,2.348l-2.074-0.382L25.243,65.94z M58.502,62.309l-6.167-0.531  l0.071-14.252l6.046,7.31c0.016,0.021,0.034,0.037,0.054,0.055C58.426,55.841,58.411,57.864,58.502,62.309z M59.263,63.339  c0.014,0,0.027,0,0.041,0c0.073,0,0.146-0.014,0.213-0.048l12.679-6.267l3.998,11.651l-4.951,3.351l-3.062-0.973  c-0.007-0.002-0.012-0.002-0.019-0.004c-0.027-0.008-0.054-0.012-0.083-0.014c-0.009-0.002-0.019-0.002-0.028-0.002  c-0.037-0.002-0.075,0-0.111,0.008h-0.001c-0.035,0.006-0.069,0.018-0.102,0.033c-0.01,0.006-0.018,0.012-0.027,0.016  c-0.024,0.014-0.048,0.029-0.071,0.045c-0.005,0.006-0.011,0.008-0.016,0.012l-1.08,0.924l-26.484-0.455l11.463-8.979  c0.017,0.012,0.033,0.02,0.05,0.027c0.007,0.004,0.012,0.004,0.018,0.006c0.033,0.012,0.067,0.02,0.104,0.023  c0.006,0,0.012,0.004,0.018,0.004L59.263,63.339z M80.544,58.739l-3.674,0.35l3.826-6.357L80.544,58.739z M76.187,58.359  c-1.304-1.052-2.205-1.721-2.691-1.995l5.844-3.241L76.187,58.359z M72.729,55.624l-12.28-1.555l11.802-7.464l8.063,0.338  L72.729,55.624z M50.837,62.033L39.44,70.958l1.267-8.863l1.733-6.655L50.837,62.033z M37.63,72.386l-5.765,4.602l-2.385-5.804  L37.63,72.386z M62.746,75.405c-0.006,0.006-0.012,0.01-0.017,0.014c-0.002,0.004-0.004,0.006-0.006,0.008l-26.537-0.657  l2.773-2.212l26.583,0.457l-2.786,2.379C62.752,75.395,62.75,75.401,62.746,75.405z M66.809,73.194l-1.664,3.961l-1.369-1.369  L66.809,73.194z M68.309,72.104l2.599,0.823l1.018,4.889l-5.904-0.265L68.309,72.104z M71.857,72.771l3.685-2.493  c-0.299,0.674-0.702,1.604-1.246,2.906c-0.849,2.024-1.313,3.17-1.553,3.843L71.857,72.771z M76.978,69.459l3.831,1.439  l-7.011,6.056C74.557,74.983,76.386,70.656,76.978,69.459z M80.741,50.97c-0.089,0.037-0.167,0.101-0.22,0.188l-0.189,0.312  l-5.238,2.907l5.726-6.553L80.741,50.97z M81.688,71.98l3.188,5.229l-5.929,2.423L81.688,71.98z M78.648,41.381l2.982-3.028  l-0.265,4.731L78.648,41.381z M81.304,44.182l-0.061,1.091l-1.973-2.368L81.304,44.182z M87.451,60.106l-4.863-7.13l3.945,1.324  l0.776,1.043L87.451,60.106z M86.782,37.72l0.476,15.897l-0.082-0.063l-1.517-2.04l-0.208-8.207  c0.081-0.056,0.144-0.132,0.178-0.226c0.05-0.134,0.039-0.283-0.032-0.407l-0.169-0.294l-0.198-7.868l1.359,0.182L86.782,37.72z   M86.49,33.711l-1.009-0.134l-0.289-0.513l-0.183-7.248L86.49,33.711z M85.528,52.949l-3.838-1.287l-0.004-0.008l0.095-3.745  L85.528,52.949z M84.663,50.177l-2.571-3.46c0.015-0.033,0.025-0.067,0.033-0.105c0.002-0.011,0.003-0.021,0.004-0.03  c0.001-0.013,0.005-0.024,0.006-0.038l0.117-2.098l2.247-0.787L84.663,50.177z M84.474,42.646v0.005l-2.163,0.757l0.232-4.142  L84.474,42.646z M84.422,40.619l-1.844-3.228l0.541-0.549c0.002-0.002,0.003-0.006,0.006-0.008c0.027-0.029,0.05-0.06,0.07-0.095  c0.004-0.006,0.006-0.014,0.009-0.021c0.014-0.028,0.025-0.058,0.034-0.09c0.003-0.01,0.005-0.021,0.007-0.032  c0.007-0.033,0.011-0.067,0.01-0.104c0-0.004,0.001-0.01,0-0.015c0-0.001,0.001-0.003,0.001-0.003l-0.349-5.511l1.33,2.365  L84.422,40.619z M82.817,28.841l1.213-3.748l0.156,6.181L82.817,28.841z M84.055,21.895l-2.082,6.437l-8.424-1.846L84.055,21.895z   M72.727,34.974l-13.076,7.875l-0.03-0.037l-0.229-7.096l12.365-8.219L72.727,34.974z M59.306,34.618  c-0.089-1.957-0.143-7.393-0.16-11.25l11.861,3.472L59.306,34.618z M61.59,19.236l9.211,6.542l-11.372-3.329L61.59,19.236z   M59.971,19.92l-1.594,2.368l-4.097,0.728L59.971,19.92z M53.089,27.404l5.337,8.208l0.193,5.983l-5.361-6.511  c0.024-0.06,0.039-0.125,0.037-0.196L53.089,27.404z M52.33,34.779l-21.268-1.819l21.048-6.153L52.33,34.779z M29.047,33.752  l22.383,1.914L31.862,49.052L29.047,33.752z M35.252,10.841l15.835,13.486l0.97,1.493l-22.9,6.695L35.252,10.841z M34.248,10.865  l-6.13,21.8l-13.641-2.627L34.248,10.865z M14.193,34.355l16.739,16.038c0.164,0.155,0.416,0.175,0.604,0.048l21.187-14.493  l6.45,7.832c0.151,0.184,0.415,0.229,0.619,0.106l13.554-8.164l8.412,1.131l-4.452,4.522c-0.174,0.175-0.185,0.454-0.027,0.645  l3.312,3.973l-8.45-0.355c-0.097-0.006-0.194,0.021-0.277,0.074l-12.941,8.185l-6.62-8.004c-0.004-0.005-0.01-0.009-0.015-0.015  c-0.011-0.012-0.023-0.024-0.035-0.036c-0.011-0.009-0.021-0.019-0.034-0.027c-0.013-0.01-0.027-0.019-0.042-0.028  c-0.012-0.007-0.024-0.014-0.037-0.02c-0.016-0.007-0.032-0.014-0.048-0.02c-0.014-0.005-0.027-0.009-0.041-0.013  c-0.016-0.004-0.033-0.007-0.05-0.009c-0.009-0.001-0.018-0.004-0.028-0.005c-0.005-0.001-0.012,0-0.019,0s-0.012-0.002-0.019-0.002  c-0.012,0-0.023,0.002-0.035,0.003c-0.013,0.001-0.024,0.001-0.036,0.003c-0.021,0.002-0.041,0.007-0.062,0.013  c-0.011,0.003-0.021,0.006-0.031,0.009c-0.016,0.006-0.032,0.014-0.048,0.021c-0.015,0.007-0.029,0.014-0.042,0.023  c-0.01,0.006-0.019,0.013-0.028,0.019c-0.012,0.009-0.024,0.015-0.035,0.025l-9.769,8.409c-0.001,0-0.002,0-0.003,0.002  l-0.002,0.002c-0.001,0-0.001,0.002-0.002,0.004c-0.022,0.018-0.043,0.039-0.062,0.062c-0.008,0.008-0.012,0.02-0.019,0.031  c-0.006,0.008-0.012,0.018-0.017,0.025c-0.022,0.039-0.041,0.076-0.05,0.117l-0.001,0.002l-1.96,7.527l-10.52,7.872L21.448,52.57  c-0.018-0.039-0.04-0.075-0.067-0.108L10.637,39.445L14.193,34.355z M13.086,53.156l6.652,6.995l-0.1,0.155L7.885,61.838  L13.086,53.156z M18.954,61.364l-6.037,9.347l-5.134-7.888L18.954,61.364z M7.278,63.81l4.586,7.044l-5.305-1.233L7.278,63.81z   M11.387,71.729l-3.529,1.524l-1.04-2.586L11.387,71.729z M6.207,64.641l-0.553,4.475l-1.472-1.095L6.207,64.641z M4.356,69.347  l1.277,0.948l1.342,3.338l-1.345,0.581L4.356,69.347z M5.53,75.305l6.204-2.678L8.918,77.3l-4.957-1.036  C4.459,75.962,5.017,75.621,5.53,75.305z M5.243,83.699c-0.295-0.792-0.595-1.601-0.878-2.379c0.822,0.494,2.15,1.259,4.296,2.465  L5.243,83.699z M3.843,79.866c-0.448-1.26-0.801-2.305-0.953-2.843l5.861,1.227l1.139,5.122C7.498,82.03,4.401,80.264,3.843,79.866z   M9.732,78.232l9.078-1.524l0.813,3.223l-8.688,3.714L9.732,78.232z M12.809,83.887l7.053-3.015l0.81,3.213L12.809,83.887z   M21.648,84.109c0.002-0.045,0-0.09-0.012-0.136L19.7,76.305l2.372-2.412c1.031,4.162,2.143,8.798,2.405,10.288L21.648,84.109z   M25.433,84.205c-0.165-1.086-0.815-4.178-3.132-13.366l1.995,0.369l2.92,13.043L25.433,84.205z M64.877,85.192  c-0.131-1.411-0.67-5.12-1.114-8.059l1.082,1.079l0.466,6.991L64.877,85.192z M66.271,85.229c0.001-0.018,0.002-0.033,0.001-0.049  l-0.445-6.674l6.274,0.278l0.905,6.413c0.01,0.076,0.04,0.145,0.079,0.202L66.271,85.229z M73.869,85.417  c0.073-0.097,0.11-0.222,0.091-0.352l-0.847-6l4.551,1.755l0.204,4.7L73.869,85.417z M77.843,79.86l-4.105-1.583l6.768-5.846  L77.843,79.86z M78.825,85.396l-0.2-4.595l6.541-2.67l0.542,5.436L78.825,85.396z M81.985,70.621  c-0.003-0.004-0.008-0.008-0.012-0.016c-0.011-0.014-0.021-0.033-0.034-0.049c-0.008-0.008-0.019-0.014-0.027-0.025  c-0.008-0.008-0.017-0.016-0.025-0.022c-0.03-0.025-0.062-0.049-0.097-0.066c0,0,0-0.002-0.001-0.002  c-0.019-0.006-0.04-0.014-0.061-0.021c-0.205-3.121-0.473-7.394-0.588-9.644l4.053,3.982l0.776,12.397L81.985,70.621z   M87.307,83.142l-1.167-18.63c-0.007-0.116-0.059-0.229-0.143-0.311l-3.794-3.73l5.358,3.302l0.572,19.149L87.307,83.142z   M87.93,43.933l3.435,2.736l0.058,10.228l-3.18-2.503L87.93,43.933z M88.279,55.647l2.88,2.269  c-0.494,0.823-1.559,2.439-2.689,4.098L88.279,55.647z"/>
</svg>