<svg xmlns="http://www.w3.org/2000/svg" xmlns:xlink="http://www.w3.org/1999/xlink" version="1.1" id="Layer_1" x="0px" y="0px" viewBox="0 0 100 100" enable-background="new 0 0 100 100" xml:space="preserve" height="100px" width="100px">
<g>
	<g>
		<path fill="#000000" d="M86.8,80.9h-74c-2.2,0-4-1.8-4-4V22c0-2.2,1.8-4,4-4h74c2.2,0,4,1.8,4,4V77C90.8,79.1,89,80.9,86.8,80.9z     M12.8,20.1c-1.1,0-2,0.9-2,2V77c0,1.1,0.9,2,2,2h74c1.1,0,2-0.9,2-2V22c0-1.1-0.9-2-2-2H12.8z"/>
	</g>
	<path fill="#000000" d="M24.1,33.1h-8.5v-8.5h8.5V33.1z M17.6,31.1h4.5v-4.5h-4.5V31.1z"/>
	<path fill="#000000" d="M24.1,46.7h-8.5v-8.5h8.5V46.7z M17.6,44.7h4.5v-4.5h-4.5V44.7z"/>
	<path fill="#000000" d="M24.1,60.3h-8.5v-8.5h8.5V60.3z M17.6,58.3h4.5v-4.5h-4.5V58.3z"/>
	<path fill="#000000" d="M24.1,74h-8.5v-8.5h8.5V74z M17.6,72h4.5v-4.5h-4.5V72z"/>
	<path fill="#000000" d="M84.2,33.1h-8.5v-8.5h8.5V33.1z M77.7,31.1h4.5v-4.5h-4.5V31.1z"/>
	<path fill="#000000" d="M84.2,46.7h-8.5v-8.5h8.5V46.7z M77.7,44.7h4.5v-4.5h-4.5V44.7z"/>
	<path fill="#000000" d="M84.2,60.3h-8.5v-8.5h8.5V60.3z M77.7,58.3h4.5v-4.5h-4.5V58.3z"/>
	<path fill="#000000" d="M84.2,74h-8.5v-8.5h8.5V74z M77.7,72h4.5v-4.5h-4.5V72z"/>
	<path fill="#000000" d="M40.8,66.7c-0.2,0-0.3,0-0.5-0.1c-0.3-0.2-0.5-0.5-0.5-0.9V34c0-0.4,0.2-0.7,0.5-0.9c0.3-0.2,0.7-0.2,1,0   L67.1,49c0.3,0.2,0.5,0.5,0.5,0.9c0,0.3-0.2,0.7-0.5,0.9L41.3,66.6C41.1,66.7,41,66.7,40.8,66.7z M41.8,35.8V64l22.9-14.1   L41.8,35.8z"/>
</g>
</svg>