<?xml version="1.0" encoding="iso-8859-1"?>
<!DOCTYPE svg PUBLIC "-//W3C//DTD SVG 1.1//EN" "http://www.w3.org/Graphics/SVG/1.1/DTD/svg11.dtd">
<svg 
 version="1.1" xmlns="http://www.w3.org/2000/svg" xmlns:xlink="http://www.w3.org/1999/xlink" x="0px" y="0px" width="512px"
	 height="512px" viewBox="0 0 512 512" style="enable-background:new 0 0 512 512;" xml:space="preserve"
><g fill="#780639" id="afcae5a789ccd549f9c6e2a2f817c82e"><g></g><path style="display: inline; " d="M282.681,108.055c4.034-1.601,8.188-2.537,11.96-2.52l14.838,0.066
		c2.819,0.017,5.11-0.482,6.82-1.376c4.449-2.337,4.923-7.398,0.457-13.249l-9.257-12.123c-6.171-8.097-8.691-22.643-5.594-32.341
		l3.307-10.359l1.256-3.917c3.094-9.698-2.229-14.871-11.831-11.498l-13.902,4.886c-4.358,1.53-9.739,1.871-15.087,1.272
		c-6.43-0.715-12.809-2.799-17.292-6.084l-12.226-8.966c-4.1-3.011-7.772-3.668-10.38-2.3c-2.603,1.373-4.146,4.766-3.992,9.852
		l0.441,15.154c0.299,10.176-6.18,23.4-14.409,29.393l-6.246,4.549l-5.66,4.125c-8.226,5.992-6.986,13.312,2.753,16.264
		l14.347,4.346c2.129,0.645,4.283,1.692,6.404,2.957c6.221,3.714,12.01,9.685,15.266,15.902c0.715,1.364,1.335,2.736,1.784,4.1
		l4.732,14.497c2.283,6.995,6.72,9.477,11.17,7.14c0.915-0.479,1.834-1.185,2.736-2.083c0.773-0.765,1.53-1.672,2.267-2.749
		l6.999-10.255l1.363-2c2.87-4.208,7.561-8.018,12.801-10.771C279.869,109.253,281.267,108.616,282.681,108.055z M259.8,102.212
		c-1.389,1.189-2.711,2.416-3.917,3.697c-1.29,1.36-2.47,2.761-3.522,4.2c-5.094-14.563-19.092-28.245-33.771-32.973
		c1.015-0.782,1.971-1.701,2.94-2.599c10.392-9.64,17.703-25.496,17.711-39.311c4.911,3.376,10.92,5.826,17.271,7.319
		c9.743,2.287,20.285,2.267,28.965-0.545c-0.017,0.042-0.017,0.092-0.033,0.133c-4.375,14.75-1.057,33.958,8.018,46.384
		c-4.429,0.121-9.124,1.069-13.803,2.604c-3.064,0.998-6.117,2.204-9.074,3.759C266.629,96.96,263.007,99.459,259.8,102.212z
		 M136.208,164.877c26.016,5.248,34.225,0.096,69.514,10.762c0.923,0.283,1.705,0.565,2.586,0.844
		c-1.185,3.082-2.453,6.134-3.875,9.032c-23.471,47.778-44.463,57.904-44.463,57.904c-5.281,2.558-10.446,4.387-11.469,4.071
		c-1.031-0.308-4.296-4.708-7.261-9.765C141.24,237.727,129.313,217.367,136.208,164.877z M249.112,155.712
		c1.206,0,2.404-0.125,3.589-0.312c-2.798,17.479-7.831,36.899-16.75,55.055c-37.29,75.894-80.547,83.263-85.362,83.853
		c-0.599,0.075-1.198,0.009-1.797,0.033L93.749,476.336c35.901,11.964,61.929,25.55,60.016,31.875
		c-2.133,7.049-38.15,2.396-80.443-10.4c-42.296-12.792-74.854-28.873-72.725-35.922c1.913-6.32,31.106-3.206,67.626,6.729
		l55.038-181.994c-0.486-0.357-1.027-0.637-1.484-1.027c-3.676-3.164-35.597-33.269-24.581-117.109
		c7.223-54.967,43.993-101.743,45.548-103.71c5.444-6.836,14.513-9.668,22.88-7.14l16.027,4.845
		c-5.747,5.706-8.616,12.638-8.15,19.824l-14.056-4.25c0,0-34.562,43.482-41.095,93.21c-9.831,74.812,17.333,98.15,17.333,98.15
		l6.15,1.854l6.159,1.863c0,0,35.535-4.366,68.808-72.093c8.5-17.291,13.033-36.092,15.407-52.705
		C237.335,153.591,243.677,155.712,249.112,155.712z M511.402,405.666c2.13,7.048-30.424,23.129-72.725,35.921
		c-42.292,12.796-78.305,17.449-80.442,10.4c-1.913-6.325,24.119-19.911,60.016-31.875l-55.034-181.994
		c-0.606-0.025-1.205,0.041-1.805-0.034c-4.807-0.59-48.074-7.963-85.36-83.853c-1.813-3.693-3.451-7.444-4.957-11.22
		c0.1-0.141,0.217-0.266,0.316-0.416l8.375-12.271c0.874-1.285,3.14-3.439,6.646-5.282c0.254-0.133,0.482-0.212,0.732-0.336
		c2.179,6.787,4.815,13.557,8.034,20.11c33.276,67.726,68.81,72.093,68.81,72.093l6.162-1.863l6.155-1.854
		c0,0,27.163-23.338,17.324-98.15c-6.529-49.728-41.095-93.21-41.095-93.21l-28.413,8.6c0.948-8.875-2.121-14.996-4.417-18.135
		c-0.582-0.799-1.214-1.547-1.888-2.254l28.544-8.629c8.369-2.528,17.436,0.304,22.875,7.141
		c1.563,1.967,38.325,48.742,45.553,103.71c11.012,83.84-20.909,113.944-24.586,117.108c-0.457,0.392-0.989,0.67-1.48,1.027
		l55.043,181.995C480.297,402.459,509.49,399.345,511.402,405.666z M307.84,120.24c10.38-3.136,18.381-4.886,25.218-5.955
		c16.401-2.562,25.935-1.106,44.29-4.808c6.903,52.489-5.031,72.85-5.031,72.85c-2.961,5.057-6.229,9.457-7.253,9.764
		c-1.031,0.316-6.188-1.514-11.478-4.071c0,0-20.986-10.126-44.465-57.903c-1.048-2.142-1.951-4.42-2.861-6.679
		c-0.32-0.798-0.698-1.551-1.007-2.354C306.131,120.805,306.917,120.522,307.84,120.24z"></path></g></svg>