<svg xmlns="http://www.w3.org/2000/svg" xmlns:xlink="http://www.w3.org/1999/xlink" version="1.1" id="Layer_1" x="0px" y="0px" width="100px" height="100px" viewBox="0 0 100 100" enable-background="new 0 0 100 100" xml:space="preserve">
<path fill="#000000" d="M32.2,32.913l-13.502,13.88l31.246,36.436l31.248-36.436L67.69,32.913H32.2z M66.007,34.81l-3.605,11.768  L52.042,34.81H66.007z M61.72,48.673l-0.025,0.064c-3.46,0.263-7.37,0.438-11.751,0.438c-4.38,0-8.29-0.175-11.749-0.438  l-0.025-0.064l11.774-13.376L61.72,48.673z M47.847,34.81L37.488,46.577L33.883,34.81H47.847z M32.162,35.671l3.949,12.891  c-7.174-0.656-12.033-1.67-14.32-2.231L32.162,35.671z M22.651,48.49c2.801,0.628,7.564,1.502,14.208,2.056l10.208,26.417  L22.651,48.49z M38.954,50.7c3.272,0.225,6.923,0.371,10.99,0.371c4.068,0,7.719-0.147,10.992-0.371L49.944,79.143L38.954,50.7z   M52.821,76.963l10.21-26.417c6.644-0.554,11.407-1.428,14.208-2.056L52.821,76.963z M78.099,46.332  c-2.287,0.56-7.146,1.575-14.319,2.231l3.949-12.891L78.099,46.332z M94.873,43.335c-0.137-0.505-0.652-0.808-1.161-0.671  l-6.028,1.611c-0.506,0.135-0.807,0.655-0.672,1.16c0.115,0.424,0.496,0.704,0.917,0.704c0.08,0,0.163-0.01,0.244-0.032l6.028-1.611  C94.707,44.36,95.009,43.84,94.873,43.335z M73.04,28.41c0.143,0.076,0.294,0.111,0.446,0.111c0.339,0,0.667-0.182,0.837-0.503  l2.805-5.272c0.246-0.462,0.07-1.036-0.391-1.282c-0.459-0.244-1.037-0.072-1.283,0.392l-2.806,5.272  C72.403,27.589,72.579,28.163,73.04,28.41z M12.207,44.274l-6.028-1.611c-0.497-0.135-1.024,0.165-1.16,0.671  c-0.135,0.506,0.165,1.025,0.671,1.16l6.028,1.611c0.081,0.022,0.164,0.032,0.245,0.032c0.418,0,0.802-0.28,0.915-0.704  C13.013,44.929,12.713,44.41,12.207,44.274z M25.567,28.018c0.17,0.32,0.498,0.503,0.837,0.503c0.152,0,0.304-0.035,0.446-0.111  c0.461-0.246,0.637-0.82,0.391-1.282l-2.806-5.272c-0.246-0.465-0.824-0.639-1.283-0.392c-0.461,0.246-0.637,0.82-0.391,1.282  L25.567,28.018z M49.944,24.21c0.524,0,0.948-0.424,0.948-0.948v-5.811c0-0.524-0.424-0.948-0.948-0.948  c-0.524,0-0.948,0.424-0.948,0.948v5.811C48.996,23.786,49.42,24.21,49.944,24.21z"/>
</svg>